<svg id="Layer_1" data-name="Layer 1" xmlns="http://www.w3.org/2000/svg" viewBox="0 0 735 848.63"><defs><style>.cls-1{fill:#fff;}.cls-2{fill:#231f20;}.cls-3,.cls-4{fill:none;stroke:#231f20;stroke-miterlimit:10;}.cls-3{stroke-width:13px;}.cls-4{stroke-width:6px;}.cls-5{fill:#de2b21;}</style></defs><path class="cls-1" d="M17.82,626.52V223l51.62-29.81L367.32,21.27h0l296.87,171.4L716.82,223V626.52L367.32,828.23Z" transform="translate(0.18 0.12)"/><path class="cls-2" d="M734.82,636.46V212l-29.31-16.9L427.63,34.69,367.32-.12,307,34.69,29.12,195.14-.18,212V636.36l29.3,16.9L310.5,815.71l56.92,32.81,56.91-32.81L705.71,653.26Zm-705-16V230.06l50-28.89,288-166.25h0L654.93,200.67l50.89,29.39V620.44l-338,195.14Z" transform="translate(0.18 0.12)"/><line class="cls-3" x1="18.28" y1="223.22" x2="367.58" y2="424.32"/><line class="cls-3" x1="716.88" y1="223.22" x2="367.58" y2="424.32"/><line class="cls-3" x1="367.58" y1="828.12" x2="367.58" y2="424.32"/><line class="cls-4" x1="30" y1="620.56" x2="192.93" y2="323.77"/><line class="cls-4" x1="367.5" y1="818.47" x2="192.93" y2="323.77"/><path class="cls-5" d="M398.63,728.92l-2.07-3.51q.46-.39,3.89-2.82,5.76-4.19,8.52-6.36c.3.45.6.94.9,1.46.53.93,1.32,2.53,2.35,4.8q1.47-.68,5.61-3.06a39.28,39.28,0,0,0,3.72-2.32c1.93,5.16,3,8.23,3.27,9.21a91.1,91.1,0,0,1-7.69,5.29q3.4,6.63,4.76,9a11,11,0,0,0,5.28,5q3,1.23,8.07,0l-1,15.76q-16.51,4.29-22.74-6.52c-.68-1.19-1.8-3.61-3.35-7.24s-2.75-6.25-3.39-7.51a34.51,34.51,0,0,0-4.17,3l.05-10.59-.5-.87Z" transform="translate(0.18 0.12)"/><path class="cls-5" d="M438.18,706.9c.51-.14,3.43-1.14,8.77-3a100.32,100.32,0,0,1,9.69-3.13,13.62,13.62,0,0,1,5.23.12,11.25,11.25,0,0,1,5.36,3,30.73,30.73,0,0,1,5.4,7.27L479.79,724a44.81,44.81,0,0,0,3.5,5.07q-3.68,3-12.71,12.3a152.71,152.71,0,0,0-8.67-16.88,56.72,56.72,0,0,1-1.35,7.63q-1.32,6-4,16.59a58.21,58.21,0,0,1-9.35,1.9q-1.12-1.54-3.66-4.74a85,85,0,0,1-6.41-9.42,23.38,23.38,0,0,1-3.52-12.25Q433.68,718.43,438.18,706.9Zm5.88,10.6,10.82,16.58a73.83,73.83,0,0,0,1.3-8.73c.29-3.12.42-6,.41-8.56Q452.21,714.72,444.06,717.5Z" transform="translate(0.18 0.12)"/><path class="cls-5" d="M461.8,672.12a104.17,104.17,0,0,1,14.76-13.37q1.49,11.85,16.37,37.7L499,707q-.71-15.72-5.2-23.53a28.38,28.38,0,0,0-2.26-3.34L503.36,670a40.19,40.19,0,0,1,2.51,6.28,15.09,15.09,0,0,1,.8,4,55.16,55.16,0,0,1-.89,6.42,32.42,32.42,0,0,0-.33,6.17c.33-.22.7-.46,1.11-.69a13,13,0,0,1,8.57-1.74q4.49.72,11.34,4.67-.84,5.29-1.67,9.35c-.56,2.7-1.15,5.15-1.77,7.37q-6.79-5.55-19.71-5,.18,9.58,1.06,11.52L492.63,729l-4.07-7.17-7.36-12.59q-7.49-13-12.43-22.44A156.88,156.88,0,0,1,461.8,672.12Z" transform="translate(0.18 0.12)"/><path class="cls-5" d="M516.69,672.61l5-14,12.22-5.88q5.94-2.78,9.65-1.78a8.56,8.56,0,0,1,5.51,3.91,23.76,23.76,0,0,1,1.53,3.47c.58,1.75,1.6,4.28,3,7.59-2.8,4.36-5.12,7.31-7,8.84a42.85,42.85,0,0,1-5.71,4,25.12,25.12,0,0,1-2.83,1.33q7.33,2.86,11.39.53a14.14,14.14,0,0,0,6.55-8.59l.34-.2q3.48,16.11-8.29,22.89-6.11,3.51-9.83,3.39a12.44,12.44,0,0,1-7-2.52q-3.28-2.28-8.33-11L518.87,677Zm13.42-7.14,5,11.29q3.78-2.19,8-5L541.6,669c-1.42-2.47-3.14-4-5.17-4.45A8.77,8.77,0,0,0,530.11,665.47Z" transform="translate(0.18 0.12)"/><path class="cls-5" d="M583.47,624.59l-.05,5.37a11,11,0,0,1,7.75,1.16,17,17,0,0,1,6.74,6.86,23.88,23.88,0,0,1,3.15,9.62,19.75,19.75,0,0,1-.59,7.94,39.23,39.23,0,0,1-4.66,8.54,22.27,22.27,0,0,0-1.64,3.1,18,18,0,0,1-1.35,2.69A31.33,31.33,0,0,1,574.59,674q-9.65-.6-13.7-7.66-6.63-11.51,3.21-31.22,7.65-3.52,12.71-6.44Q580.56,626.5,583.47,624.59Zm-14.66,17.78a17.93,17.93,0,0,0,2.3,9.35q6.51,11.29,19.49,7.13a40.88,40.88,0,0,0-3.83-9.17q-3.87-6.72-8.73-7.8A16.42,16.42,0,0,0,568.81,642.37Z" transform="translate(0.18 0.12)"/><path class="cls-5" d="M597.12,618.76q4.93-3.3,13.72-12.54a38.45,38.45,0,0,0,2.22,6.67c.78,2,1.6,4.19,2.47,6.71a40,40,0,0,0,3,6.65,16.15,16.15,0,0,0,4.25,4.86A76,76,0,0,0,629.6,636a38.34,38.34,0,0,0,2.61-8.87c-.45-.86-1.37-2.49-2.76-4.91q-7-12.15-11.31-17.11a20.6,20.6,0,0,0,3.32-1.5,94,94,0,0,0,11.94-8.38q3.48,6.93,9,16.61,3.24,5.63,11.29,18.69-2.24,1.86-8.64,7.47l-5.34,4.64a48,48,0,0,0-3.58-8A132.61,132.61,0,0,0,629,647.94q-7,1.93-9.17,1.91a10.51,10.51,0,0,1-5.48-2q-3.27-2.07-6.44-7.55A201.13,201.13,0,0,1,597.12,618.76Z" transform="translate(0.18 0.12)"/><path class="cls-5" d="M643.76,587.79l-2.08-3.5c.32-.26,1.61-1.2,3.89-2.82q5.77-4.2,8.53-6.36c.29.45.59.93.89,1.45.54.93,1.32,2.53,2.36,4.8q1.47-.68,5.61-3.06a39.91,39.91,0,0,0,3.72-2.31q2.88,7.74,3.26,9.2-2.67,2.12-7.68,5.3,3.4,6.63,4.76,9a11,11,0,0,0,5.27,5q3,1.21,8.07,0l-1,15.76q-16.51,4.28-22.74-6.53-1-1.79-3.35-7.24c-1.62-3.74-2.75-6.25-3.4-7.5a33.45,33.45,0,0,0-4.17,3l.06-10.6-.51-.87Z" transform="translate(0.18 0.12)"/><line class="cls-4" x1="367.58" y1="424.32" x2="542.23" y2="283.86"/><line class="cls-4" x1="716.88" y1="223.22" x2="542.23" y2="283.86"/><polygon class="cls-1" points="37.62 226.46 221.3 99.16 239.15 110.09 37.62 226.46"/><polygon class="cls-1" points="223.28 97.37 243.49 109.18 368 35.03 223.28 97.37"/><line class="cls-4" x1="542.23" y1="283.86" x2="219.38" y2="95.09"/><path class="cls-1" d="M254.71,36.91" transform="translate(0.18 0.12)"/><path class="cls-4" d="M-435.94,409.34" transform="translate(0.18 0.12)"/></svg>