<svg id="Layer_1" data-name="Layer 1" xmlns="http://www.w3.org/2000/svg" viewBox="0 0 735 848.63"><defs><style>.cls-1{fill:#fff;}.cls-2{fill:#231f20;}.cls-3,.cls-4{fill:none;stroke:#231f20;stroke-miterlimit:10;}.cls-3{stroke-width:13px;}.cls-4{stroke-width:6px;}.cls-5{font-size:103px;fill:#de2b21;font-family:MaturaMTScriptCapitals, Matura MT Script Capitals;}.cls-6{letter-spacing:-0.02em;}</style></defs><path class="cls-1" d="M17.82,626.52V223l51.62-29.81L367.32,21.27h0l296.87,171.4L716.82,223V626.52L367.32,828.23Z" transform="translate(0.18 0.12)"/><path class="cls-2" d="M734.82,636.46V212l-29.31-16.9L427.63,34.69,367.32-.12,307,34.69,29.12,195.14-.18,212V636.36l29.3,16.9L310.5,815.71l56.92,32.81,56.91-32.81L705.71,653.26Zm-705-16V230.06l50-28.89,288-166.25h0L654.93,200.67l50.89,29.39V620.44l-338,195.14Z" transform="translate(0.18 0.12)"/><line class="cls-3" x1="18.28" y1="223.22" x2="367.58" y2="424.32"/><line class="cls-3" x1="716.88" y1="223.22" x2="367.58" y2="424.32"/><line class="cls-3" x1="367.58" y1="828.12" x2="367.58" y2="424.32"/><line class="cls-4" x1="30" y1="620.56" x2="192.93" y2="323.77"/><line class="cls-4" x1="367.5" y1="818.47" x2="192.93" y2="323.77"/><text class="cls-5" transform="translate(413.8 770.08) rotate(-29.93)">ta<tspan class="cls-6" x="84.79" y="0">k</tspan><tspan x="133.73" y="0">eout</tspan></text><line class="cls-4" x1="367.58" y1="424.32" x2="542.23" y2="283.86"/><line class="cls-4" x1="716.88" y1="223.22" x2="542.23" y2="283.86"/><polygon class="cls-1" points="37.62 226.46 221.3 99.16 239.15 110.09 37.62 226.46"/><polygon class="cls-1" points="223.28 97.37 243.49 109.18 368 35.03 223.28 97.37"/><line class="cls-4" x1="542.23" y1="283.86" x2="219.38" y2="95.09"/><path class="cls-1" d="M254.71,36.91" transform="translate(0.18 0.12)"/><path class="cls-4" d="M-435.94,409.34" transform="translate(0.18 0.12)"/></svg>